STARTFONT 2.1
FONT -Monotype-Bembo-Regular-R-Normal--18-180-72-72-P-84-iso8859-1
SIZE 18 72 72
FONTBOUNDINGBOX 21 21 -2 -4

STARTPROPERTIES 22
FOUNDRY "Monotype"
FAMILY_NAME "Bembo"
WEIGHT_NAME "Regular"
SLANT "R"
SETWIDTH_NAME "Normal"
ADD_STYLE_NAME ""
PIXEL_SIZE 18
POINT_SIZE 180
RESOLUTION_X 72
RESOLUTION_Y 72
SPACING "P"
AVERAGE_WIDTH 84
CHARSET_REGISTRY "iso8859"
CHARSET_ENCODING "1"
COPYRIGHT "Copyright (c) 1996 Monotype Typography Ltd."
CAP_HEIGHT 13
X_HEIGHT 8
WEIGHT 10
QUAD_WIDTH 12
DEFAULT_CHAR 32
FONT_DESCENT 5
FONT_ASCENT 17
ENDPROPERTIES

CHARS 191

STARTCHAR space
ENCODING 32
SWIDTH 278 0
DWIDTH 6 0
BBX 0 0 0 0
BITMAP
ENDCHAR

STARTCHAR exclam
ENCODING 33
SWIDTH 260 0
DWIDTH 5 0
BBX 2 13 1 0
BITMAP
C0
C0
C0
C0
C0
C0
C0
C0
C0
00
00
C0
C0
ENDCHAR

STARTCHAR quotedbl
ENCODING 34
SWIDTH 406 0
DWIDTH 8 0
BBX 5 4 1 8
BITMAP
D8
D8
D8
D8
ENDCHAR

STARTCHAR numbersign
ENCODING 35
SWIDTH 668 0
DWIDTH 13 0
BBX 12 12 0 0
BITMAP
0840
0840
0840
7FF0
1080
1080
1080
1080
FFE0
2100
2100
2100
ENDCHAR

STARTCHAR dollar
ENCODING 36
SWIDTH 458 0
DWIDTH 9 0
BBX 7 15 1 -2
BITMAP
28
38
6C
EA
EA
E8
78
3C
3C
2E
AE
AE
7C
28
28
ENDCHAR

STARTCHAR percent
ENCODING 37
SWIDTH 719 0
DWIDTH 14 0
BBX 13 12 0 0
BITMAP
7018
D830
D860
D8C0
D980
7300
0670
0CD8
18D8
30D8
60D8
C070
ENDCHAR

STARTCHAR ampersand
ENCODING 38
SWIDTH 729 0
DWIDTH 14 0
BBX 13 12 1 0
BITMAP
3C00
6600
6600
3438
1810
3820
6C20
C640
C380
C180
E2C8
7C70
ENDCHAR

STARTCHAR quoteright
ENCODING 39
SWIDTH 260 0
DWIDTH 5 0
BBX 2 4 1 9
BITMAP
C0
C0
40
80
ENDCHAR

STARTCHAR parenleft
ENCODING 40
SWIDTH 302 0
DWIDTH 6 0
BBX 4 16 2 -4
BITMAP
10
20
20
40
40
C0
C0
C0
C0
C0
C0
40
40
20
20
10
ENDCHAR

STARTCHAR parenright
ENCODING 41
SWIDTH 302 0
DWIDTH 6 0
BBX 4 16 0 -4
BITMAP
80
40
40
20
20
30
30
30
30
30
30
20
20
40
40
80
ENDCHAR

STARTCHAR asterisk
ENCODING 42
SWIDTH 510 0
DWIDTH 10 0
BBX 7 8 1 5
BITMAP
10
10
D6
7C
38
38
6C
C6
ENDCHAR

STARTCHAR plus
ENCODING 43
SWIDTH 667 0
DWIDTH 13 0
BBX 9 9 2 1
BITMAP
0800
0800
0800
0800
FF80
0800
0800
0800
0800
ENDCHAR

STARTCHAR comma
ENCODING 44
SWIDTH 260 0
DWIDTH 5 0
BBX 2 4 1 -2
BITMAP
C0
C0
40
80
ENDCHAR

STARTCHAR minus
ENCODING 45
SWIDTH 667 0
DWIDTH 13 0
BBX 9 1 2 5
BITMAP
FF80
ENDCHAR

STARTCHAR period
ENCODING 46
SWIDTH 260 0
DWIDTH 5 0
BBX 2 2 1 0
BITMAP
C0
C0
ENDCHAR

STARTCHAR slash
ENCODING 47
SWIDTH 458 0
DWIDTH 9 0
BBX 7 13 1 -1
BITMAP
02
04
04
08
08
10
10
20
20
40
40
80
80
ENDCHAR

STARTCHAR zero
ENCODING 48
SWIDTH 490 0
DWIDTH 9 0
BBX 7 12 1 0
BITMAP
38
44
C6
C6
C6
C6
C6
C6
C6
C6
44
38
ENDCHAR

STARTCHAR one
ENCODING 49
SWIDTH 490 0
DWIDTH 9 0
BBX 6 12 1 0
BITMAP
10
30
F0
30
30
30
30
30
30
30
30
FC
ENDCHAR

STARTCHAR two
ENCODING 50
SWIDTH 490 0
DWIDTH 9 0
BBX 7 12 1 0
BITMAP
3C
4E
86
86
06
0C
0C
18
10
22
7E
FE
ENDCHAR

STARTCHAR three
ENCODING 51
SWIDTH 490 0
DWIDTH 9 0
BBX 7 12 1 0
BITMAP
78
8C
8C
0C
08
3C
06
06
06
06
84
78
ENDCHAR

STARTCHAR four
ENCODING 52
SWIDTH 490 0
DWIDTH 9 0
BBX 9 12 0 0
BITMAP
0200
0600
0E00
1600
2600
4600
8600
FF80
0600
0600
0600
0600
ENDCHAR

STARTCHAR five
ENCODING 53
SWIDTH 490 0
DWIDTH 9 0
BBX 7 13 1 0
BITMAP
04
7C
7C
40
40
78
4C
06
06
06
06
CC
78
ENDCHAR

STARTCHAR six
ENCODING 54
SWIDTH 490 0
DWIDTH 9 0
BBX 7 12 1 0
BITMAP
18
20
40
40
D8
E4
C6
C6
C6
C6
44
38
ENDCHAR

STARTCHAR seven
ENCODING 55
SWIDTH 490 0
DWIDTH 9 0
BBX 7 12 1 0
BITMAP
FE
FE
82
04
04
08
08
10
10
10
20
20
ENDCHAR

STARTCHAR eight
ENCODING 56
SWIDTH 490 0
DWIDTH 9 0
BBX 7 12 1 0
BITMAP
38
4C
C6
C6
64
38
5C
CE
C6
C6
64
38
ENDCHAR

STARTCHAR nine
ENCODING 57
SWIDTH 490 0
DWIDTH 9 0
BBX 7 12 1 0
BITMAP
38
44
C6
C6
C6
C6
4E
36
04
04
08
30
ENDCHAR

STARTCHAR colon
ENCODING 58
SWIDTH 260 0
DWIDTH 5 0
BBX 2 8 1 0
BITMAP
C0
C0
00
00
00
00
C0
C0
ENDCHAR

STARTCHAR semicolon
ENCODING 59
SWIDTH 260 0
DWIDTH 5 0
BBX 2 10 1 -2
BITMAP
C0
C0
00
00
00
00
C0
C0
40
80
ENDCHAR

STARTCHAR less
ENCODING 60
SWIDTH 667 0
DWIDTH 13 0
BBX 10 9 1 2
BITMAP
00C0
0300
0C00
3000
C000
3000
0C00
0300
00C0
ENDCHAR

STARTCHAR equal
ENCODING 61
SWIDTH 667 0
DWIDTH 13 0
BBX 9 4 2 4
BITMAP
FF80
0000
0000
FF80
ENDCHAR

STARTCHAR greater
ENCODING 62
SWIDTH 667 0
DWIDTH 13 0
BBX 10 9 1 2
BITMAP
C000
3000
0C00
0300
00C0
0300
0C00
3000
C000
ENDCHAR

STARTCHAR question
ENCODING 63
SWIDTH 354 0
DWIDTH 7 0
BBX 5 13 1 0
BITMAP
70
C8
08
08
18
30
60
40
40
00
00
60
60
ENDCHAR

STARTCHAR at
ENCODING 64
SWIDTH 917 0
DWIDTH 17 0
BBX 16 17 0 -4
BITMAP
03F0
0C0C
1002
2002
40D9
4131
8231
8431
8C61
8C62
8CC2
8DCC
4670
4000
2006
1818
07E0
ENDCHAR

STARTCHAR A
ENCODING 65
SWIDTH 677 0
DWIDTH 13 0
BBX 14 12 0 0
BITMAP
0300
0300
0300
0580
0580
08C0
08C0
1FE0
1060
2030
2030
F8FC
ENDCHAR

STARTCHAR B
ENCODING 66
SWIDTH 635 0
DWIDTH 12 0
BBX 11 12 0 0
BITMAP
FF80
30C0
30C0
30C0
3180
3F00
30C0
3060
3060
3060
30C0
FF80
ENDCHAR

STARTCHAR C
ENCODING 67
SWIDTH 729 0
DWIDTH 14 0
BBX 11 12 1 0
BITMAP
0FE0
3060
6020
6000
C000
C000
C000
C000
6000
6020
3060
0F80
ENDCHAR

STARTCHAR D
ENCODING 68
SWIDTH 760 0
DWIDTH 14 0
BBX 12 12 0 0
BITMAP
FF00
30C0
3060
3060
3030
3030
3030
3030
3060
3060
30C0
FF00
ENDCHAR

STARTCHAR E
ENCODING 69
SWIDTH 594 0
DWIDTH 11 0
BBX 10 12 0 0
BITMAP
FF80
3080
3000
3000
3100
3F00
3100
3000
3000
3040
3040
FFC0
ENDCHAR

STARTCHAR F
ENCODING 70
SWIDTH 531 0
DWIDTH 10 0
BBX 9 12 0 0
BITMAP
FF80
3080
3000
3000
3100
3F00
3100
3000
3000
3000
3000
FC00
ENDCHAR

STARTCHAR G
ENCODING 71
SWIDTH 740 0
DWIDTH 14 0
BBX 12 12 1 0
BITMAP
0FE0
3060
6020
6000
C000
C000
C1F0
C060
6060
6060
3060
0FC0
ENDCHAR

STARTCHAR H
ENCODING 72
SWIDTH 792 0
DWIDTH 15 0
BBX 14 12 0 0
BITMAP
FCFC
3030
3030
3030
3030
3FF0
3030
3030
3030
3030
3030
FCFC
ENDCHAR

STARTCHAR I
ENCODING 73
SWIDTH 333 0
DWIDTH 6 0
BBX 6 12 0 0
BITMAP
FC
30
30
30
30
30
30
30
30
30
30
FC
ENDCHAR

STARTCHAR J
ENCODING 74
SWIDTH 302 0
DWIDTH 6 0
BBX 7 16 -1 -4
BITMAP
7E
18
18
18
18
18
18
18
18
18
18
18
18
18
D0
60
ENDCHAR

STARTCHAR K
ENCODING 75
SWIDTH 698 0
DWIDTH 13 0
BBX 13 12 0 0
BITMAP
FDF0
3040
3080
3100
3200
3C00
3600
3300
3180
30C0
3060
FCF8
ENDCHAR

STARTCHAR L
ENCODING 76
SWIDTH 552 0
DWIDTH 10 0
BBX 9 12 0 0
BITMAP
FC00
3000
3000
3000
3000
3000
3000
3000
3000
3080
3080
FF80
ENDCHAR

STARTCHAR M
ENCODING 77
SWIDTH 917 0
DWIDTH 17 0
BBX 17 12 0 0
BITMAP
F00F80
380E00
381600
2C1600
2C2600
262600
262600
234600
234600
218600
218600
F99F80
ENDCHAR

STARTCHAR N
ENCODING 78
SWIDTH 813 0
DWIDTH 15 0
BBX 14 12 0 0
BITMAP
E07C
3010
3810
2C10
2610
2310
2310
2190
20D0
2070
2030
F810
ENDCHAR

STARTCHAR O
ENCODING 79
SWIDTH 823 0
DWIDTH 16 0
BBX 13 12 1 0
BITMAP
0F80
3060
6030
6030
C018
C018
C018
C018
6030
6030
3060
0F80
ENDCHAR

STARTCHAR P
ENCODING 80
SWIDTH 563 0
DWIDTH 11 0
BBX 10 12 0 0
BITMAP
FF00
3180
30C0
30C0
30C0
3180
3F00
3000
3000
3000
3000
FC00
ENDCHAR

STARTCHAR Q
ENCODING 81
SWIDTH 823 0
DWIDTH 16 0
BBX 13 16 1 -4
BITMAP
0F80
3060
6030
6030
C018
C018
C018
C018
6030
6030
3060
0F80
0300
0180
00C0
0030
ENDCHAR

STARTCHAR R
ENCODING 82
SWIDTH 802 0
DWIDTH 15 0
BBX 14 12 0 0
BITMAP
FF80
30C0
3060
3060
3060
30C0
3F00
3180
30C0
3060
3030
FC1C
ENDCHAR

STARTCHAR S
ENCODING 83
SWIDTH 490 0
DWIDTH 9 0
BBX 7 12 1 0
BITMAP
7A
C6
C2
C0
60
30
18
0C
06
86
C6
BC
ENDCHAR

STARTCHAR T
ENCODING 84
SWIDTH 677 0
DWIDTH 13 0
BBX 10 12 1 0
BITMAP
FFC0
8C40
8C40
0C00
0C00
0C00
0C00
0C00
0C00
0C00
0C00
3F00
ENDCHAR

STARTCHAR U
ENCODING 85
SWIDTH 792 0
DWIDTH 15 0
BBX 14 12 0 0
BITMAP
FC7C
3010
3010
3010
3010
3010
3010
3010
3010
3010
1820
0FC0
ENDCHAR

STARTCHAR V
ENCODING 86
SWIDTH 688 0
DWIDTH 13 0
BBX 14 12 -1 0
BITMAP
FC7C
3010
3010
1820
1820
0C40
0C40
0680
0680
0300
0300
0300
ENDCHAR

STARTCHAR W
ENCODING 87
SWIDTH 1000 0
DWIDTH 19 0
BBX 19 12 0 0
BITMAP
FBFBE0
319080
319080
18E100
18E100
0C6200
0C6200
06B400
06B400
031800
031800
031800
ENDCHAR

STARTCHAR X
ENCODING 88
SWIDTH 750 0
DWIDTH 14 0
BBX 14 12 0 0
BITMAP
F87C
3010
1820
0C40
0680
0300
0300
0580
08C0
1060
2030
F87C
ENDCHAR

STARTCHAR Y
ENCODING 89
SWIDTH 708 0
DWIDTH 13 0
BBX 14 12 -1 0
BITMAP
F83C
3010
1820
0C40
0680
0300
0300
0300
0300
0300
0300
0FC0
ENDCHAR

STARTCHAR Z
ENCODING 90
SWIDTH 677 0
DWIDTH 13 0
BBX 11 12 1 0
BITMAP
FFE0
8060
80C0
0180
0300
0600
0C00
1800
3000
6020
C020
FFE0
ENDCHAR

STARTCHAR bracketleft
ENCODING 91
SWIDTH 302 0
DWIDTH 6 0
BBX 4 16 2 -4
BITMAP
F0
C0
C0
C0
C0
C0
C0
C0
C0
C0
C0
C0
C0
C0
C0
F0
ENDCHAR

STARTCHAR backslash
ENCODING 92
SWIDTH 458 0
DWIDTH 9 0
BBX 7 13 1 -1
BITMAP
80
40
40
20
20
10
10
08
08
04
04
02
02
ENDCHAR

STARTCHAR bracketright
ENCODING 93
SWIDTH 302 0
DWIDTH 6 0
BBX 4 16 0 -4
BITMAP
F0
30
30
30
30
30
30
30
30
30
30
30
30
30
30
F0
ENDCHAR

STARTCHAR asciicircum
ENCODING 94
SWIDTH 469 0
DWIDTH 9 0
BBX 9 5 0 7
BITMAP
0800
1400
2200
4100
8080
ENDCHAR

STARTCHAR underscore
ENCODING 95
SWIDTH 500 0
DWIDTH 10 0
BBX 10 1 0 -2
BITMAP
FFC0
ENDCHAR

STARTCHAR quoteleft
ENCODING 96
SWIDTH 260 0
DWIDTH 5 0
BBX 2 4 1 8
BITMAP
40
80
C0
C0
ENDCHAR

STARTCHAR a
ENCODING 97
SWIDTH 396 0
DWIDTH 8 0
BBX 7 8 0 0
BITMAP
78
CC
0C
1C
6C
CC
CC
F6
ENDCHAR

STARTCHAR b
ENCODING 98
SWIDTH 500 0
DWIDTH 10 0
BBX 8 13 0 0
BITMAP
60
E0
60
60
60
6C
76
63
63
63
63
66
7C
ENDCHAR

STARTCHAR c
ENCODING 99
SWIDTH 427 0
DWIDTH 8 0
BBX 7 8 0 0
BITMAP
3C
66
C0
C0
C0
C0
62
3C
ENDCHAR

STARTCHAR d
ENCODING 100
SWIDTH 500 0
DWIDTH 10 0
BBX 8 13 1 0
BITMAP
06
0E
06
06
06
36
4E
C6
C6
C6
C6
6E
37
ENDCHAR

STARTCHAR e
ENCODING 101
SWIDTH 438 0
DWIDTH 8 0
BBX 7 8 0 0
BITMAP
38
64
C6
FE
C0
C0
62
3C
ENDCHAR

STARTCHAR f
ENCODING 102
SWIDTH 271 0
DWIDTH 5 0
BBX 6 13 0 0
BITMAP
18
24
60
60
60
F0
60
60
60
60
60
60
F0
ENDCHAR

STARTCHAR g
ENCODING 103
SWIDTH 469 0
DWIDTH 9 0
BBX 8 12 1 -4
BITMAP
7B
CC
CC
CC
78
40
C0
FC
7E
82
C4
78
ENDCHAR

STARTCHAR h
ENCODING 104
SWIDTH 521 0
DWIDTH 10 0
BBX 9 13 0 0
BITMAP
6000
E000
6000
6000
6000
6E00
7300
6300
6300
6300
6300
6300
F780
ENDCHAR

STARTCHAR i
ENCODING 105
SWIDTH 260 0
DWIDTH 5 0
BBX 4 12 0 0
BITMAP
60
60
00
00
60
E0
60
60
60
60
60
F0
ENDCHAR

STARTCHAR j
ENCODING 106
SWIDTH 250 0
DWIDTH 5 0
BBX 5 16 -2 -4
BITMAP
18
18
00
00
18
38
18
18
18
18
18
18
18
18
D0
60
ENDCHAR

STARTCHAR k
ENCODING 107
SWIDTH 500 0
DWIDTH 10 0
BBX 10 13 0 0
BITMAP
6000
E000
6000
6000
6000
6780
6200
6400
7800
6C00
6600
6300
F7C0
ENDCHAR

STARTCHAR l
ENCODING 108
SWIDTH 240 0
DWIDTH 5 0
BBX 4 13 0 0
BITMAP
60
E0
60
60
60
60
60
60
60
60
60
60
F0
ENDCHAR

STARTCHAR m
ENCODING 109
SWIDTH 792 0
DWIDTH 15 0
BBX 14 8 0 0
BITMAP
6F70
F398
6318
6318
6318
6318
6318
F7BC
ENDCHAR

STARTCHAR n
ENCODING 110
SWIDTH 521 0
DWIDTH 10 0
BBX 9 8 0 0
BITMAP
6E00
F300
6300
6300
6300
6300
6300
F780
ENDCHAR

STARTCHAR o
ENCODING 111
SWIDTH 521 0
DWIDTH 10 0
BBX 7 8 1 0
BITMAP
38
4C
C6
C6
C6
C6
64
38
ENDCHAR

STARTCHAR p
ENCODING 112
SWIDTH 500 0
DWIDTH 10 0
BBX 8 12 0 -4
BITMAP
6C
F6
63
63
63
63
66
7C
60
60
60
F0
ENDCHAR

STARTCHAR q
ENCODING 113
SWIDTH 500 0
DWIDTH 10 0
BBX 8 12 1 -4
BITMAP
3A
66
C6
C6
C6
C6
6E
36
06
06
06
0F
ENDCHAR

STARTCHAR r
ENCODING 114
SWIDTH 333 0
DWIDTH 6 0
BBX 6 8 0 0
BITMAP
6C
FC
60
60
60
60
60
F0
ENDCHAR

STARTCHAR s
ENCODING 115
SWIDTH 302 0
DWIDTH 6 0
BBX 5 8 0 0
BITMAP
78
C8
C0
60
30
18
98
F0
ENDCHAR

STARTCHAR t
ENCODING 116
SWIDTH 292 0
DWIDTH 6 0
BBX 6 10 0 0
BITMAP
20
60
F8
60
60
60
60
60
64
38
ENDCHAR

STARTCHAR u
ENCODING 117
SWIDTH 521 0
DWIDTH 10 0
BBX 9 8 0 0
BITMAP
6300
E700
6300
6300
6300
6300
6700
3B80
ENDCHAR

STARTCHAR v
ENCODING 118
SWIDTH 479 0
DWIDTH 9 0
BBX 8 8 0 0
BITMAP
F7
62
62
34
34
18
18
18
ENDCHAR

STARTCHAR w
ENCODING 119
SWIDTH 740 0
DWIDTH 14 0
BBX 13 8 0 0
BITMAP
F7B8
6310
6310
35A0
35A0
18C0
18C0
18C0
ENDCHAR

STARTCHAR x
ENCODING 120
SWIDTH 490 0
DWIDTH 9 0
BBX 9 8 0 0
BITMAP
F780
6200
3400
1800
1C00
2600
4300
E780
ENDCHAR

STARTCHAR y
ENCODING 121
SWIDTH 469 0
DWIDTH 9 0
BBX 8 12 0 -4
BITMAP
F7
62
62
34
34
18
18
10
20
20
C0
C0
ENDCHAR

STARTCHAR z
ENCODING 122
SWIDTH 406 0
DWIDTH 8 0
BBX 7 8 0 0
BITMAP
FE
86
0C
18
30
60
C2
FE
ENDCHAR

STARTCHAR braceleft
ENCODING 123
SWIDTH 479 0
DWIDTH 9 0
BBX 5 16 2 -4
BITMAP
08
10
20
20
20
20
40
80
40
20
20
20
20
20
10
08
ENDCHAR

STARTCHAR bar
ENCODING 124
SWIDTH 510 0
DWIDTH 10 0
BBX 1 16 4 -4
BITMAP
80
80
80
80
80
80
80
80
80
80
80
80
80
80
80
80
ENDCHAR

STARTCHAR braceright
ENCODING 125
SWIDTH 479 0
DWIDTH 9 0
BBX 5 16 2 -4
BITMAP
80
40
20
20
20
20
10
08
10
20
20
20
20
20
40
80
ENDCHAR

STARTCHAR asciitilde
ENCODING 126
SWIDTH 542 0
DWIDTH 10 0
BBX 8 3 1 4
BITMAP
61
99
86
ENDCHAR

STARTCHAR space
ENCODING 160
SWIDTH 278 0
DWIDTH 5 0
BBX 0 0 0 0
BITMAP
ENDCHAR

STARTCHAR exclamdown
ENCODING 161
SWIDTH 260 0
DWIDTH 5 0
BBX 2 13 1 -4
BITMAP
C0
C0
00
00
C0
C0
C0
C0
C0
C0
C0
C0
C0
ENDCHAR

STARTCHAR cent
ENCODING 162
SWIDTH 427 0
DWIDTH 8 0
BBX 7 13 0 -3
BITMAP
04
04
3C
6E
C8
C8
C8
D0
72
3C
20
20
20
ENDCHAR

STARTCHAR sterling
ENCODING 163
SWIDTH 760 0
DWIDTH 14 0
BBX 13 17 0 -4
BITMAP
0078
00D8
0180
0100
0300
0300
0600
0600
0600
0C00
0C00
7F00
1800
3C18
6618
C390
C0E0
ENDCHAR

STARTCHAR currency
ENCODING 164
SWIDTH 667 0
DWIDTH 13 0
BBX 8 8 2 2
BITMAP
BD
42
81
81
81
81
42
BD
ENDCHAR

STARTCHAR yen
ENCODING 165
SWIDTH 500 0
DWIDTH 10 0
BBX 12 12 -1 0
BITMAP
F8F0
3040
1880
0D00
0600
3FC0
0600
0600
3FC0
0600
0600
1F80
ENDCHAR

STARTCHAR brokenbar
ENCODING 166
SWIDTH 510 0
DWIDTH 10 0
BBX 1 16 4 -4
BITMAP
80
80
80
80
80
80
80
00
00
80
80
80
80
80
80
80
ENDCHAR

STARTCHAR section
ENCODING 167
SWIDTH 469 0
DWIDTH 9 0
BBX 7 17 1 -4
BITMAP
3C
42
40
A0
A0
90
90
48
44
24
12
12
0A
0A
04
84
78
ENDCHAR

STARTCHAR dieresis
ENCODING 168
SWIDTH 333 0
DWIDTH 6 0
BBX 5 2 0 10
BITMAP
D8
D8
ENDCHAR

STARTCHAR copyright
ENCODING 169
SWIDTH 760 0
DWIDTH 14 0
BBX 13 13 0 0
BITMAP
0F80
3060
4010
4710
8C88
9808
9808
9808
8C88
4710
4010
3060
0F80
ENDCHAR

STARTCHAR ordfeminine
ENCODING 170
SWIDTH 260 0
DWIDTH 5 0
BBX 5 5 0 7
BITMAP
60
90
70
90
E8
ENDCHAR

STARTCHAR guillemotleft
ENCODING 171
SWIDTH 354 0
DWIDTH 7 0
BBX 7 7 0 1
BITMAP
12
24
48
90
48
24
12
ENDCHAR

STARTCHAR logicalnot
ENCODING 172
SWIDTH 667 0
DWIDTH 13 0
BBX 10 5 1 4
BITMAP
FFC0
0040
0040
0040
0040
ENDCHAR

STARTCHAR hyphen
ENCODING 173
SWIDTH 396 0
DWIDTH 8 0
BBX 6 1 1 3
BITMAP
FC
ENDCHAR

STARTCHAR registered
ENCODING 174
SWIDTH 760 0
DWIDTH 14 0
BBX 13 13 0 0
BITMAP
0F80
3060
4010
5F10
8D88
8D88
8F08
8D08
8D88
5ED0
4010
3060
0F80
ENDCHAR

STARTCHAR macron
ENCODING 175
SWIDTH 333 0
DWIDTH 6 0
BBX 5 1 0 10
BITMAP
F8
ENDCHAR

STARTCHAR degree
ENCODING 176
SWIDTH 396 0
DWIDTH 8 0
BBX 5 5 1 7
BITMAP
70
88
88
88
70
ENDCHAR

STARTCHAR plusminus
ENCODING 177
SWIDTH 667 0
DWIDTH 13 0
BBX 9 11 2 0
BITMAP
0800
0800
0800
0800
FF80
0800
0800
0800
0800
0000
FF80
ENDCHAR

STARTCHAR twosuperior
ENCODING 178
SWIDTH 302 0
DWIDTH 6 0
BBX 4 6 1 6
BITMAP
60
90
10
20
40
F0
ENDCHAR

STARTCHAR threesuperior
ENCODING 179
SWIDTH 302 0
DWIDTH 6 0
BBX 4 6 1 6
BITMAP
60
10
60
10
90
60
ENDCHAR

STARTCHAR acute
ENCODING 180
SWIDTH 333 0
DWIDTH 6 0
BBX 4 3 1 9
BITMAP
30
60
80
ENDCHAR

STARTCHAR mu
ENCODING 181
SWIDTH 500 0
DWIDTH 10 0
BBX 9 12 1 -4
BITMAP
C600
C600
C600
C600
C600
C600
C680
7B00
4000
C000
C000
C000
ENDCHAR

STARTCHAR paragraph
ENCODING 182
SWIDTH 448 0
DWIDTH 9 0
BBX 8 16 1 -4
BITMAP
3F
72
F2
F2
F2
72
32
12
12
12
12
12
12
12
12
12
ENDCHAR

STARTCHAR periodcentered
ENCODING 183
SWIDTH 260 0
DWIDTH 5 0
BBX 2 2 1 5
BITMAP
C0
C0
ENDCHAR

STARTCHAR cedilla
ENCODING 184
SWIDTH 333 0
DWIDTH 6 0
BBX 5 4 0 -4
BITMAP
20
30
18
F0
ENDCHAR

STARTCHAR onesuperior
ENCODING 185
SWIDTH 302 0
DWIDTH 6 0
BBX 3 6 2 6
BITMAP
40
C0
40
40
40
E0
ENDCHAR

STARTCHAR ordmasculine
ENCODING 186
SWIDTH 344 0
DWIDTH 7 0
BBX 5 6 1 6
BITMAP
70
88
88
88
88
70
ENDCHAR

STARTCHAR guillemotright
ENCODING 187
SWIDTH 354 0
DWIDTH 7 0
BBX 7 7 0 1
BITMAP
90
48
24
12
24
48
90
ENDCHAR

STARTCHAR onequarter
ENCODING 188
SWIDTH 719 0
DWIDTH 14 0
BBX 12 12 1 0
BITMAP
2010
6020
2040
2080
2100
7200
0420
0860
10A0
21F0
4020
8020
ENDCHAR

STARTCHAR onehalf
ENCODING 189
SWIDTH 719 0
DWIDTH 14 0
BBX 11 12 1 0
BITMAP
2000
6020
2040
2080
2100
7200
04C0
0920
1020
2040
4080
81E0
ENDCHAR

STARTCHAR threequarters
ENCODING 190
SWIDTH 719 0
DWIDTH 14 0
BBX 12 12 1 0
BITMAP
6010
1020
6040
1080
9100
6200
0440
08C0
1140
23E0
4040
8040
ENDCHAR

STARTCHAR questiondown
ENCODING 191
SWIDTH 354 0
DWIDTH 7 0
BBX 5 13 1 -4
BITMAP
30
30
00
00
10
10
30
60
C0
80
80
98
70
ENDCHAR

STARTCHAR Agrave
ENCODING 192
SWIDTH 677 0
DWIDTH 13 0
BBX 14 17 0 0
BITMAP
0600
0300
0080
0000
0000
0300
0300
0300
0580
0580
08C0
08C0
1FE0
1060
2030
2030
F8FC
ENDCHAR

STARTCHAR Aacute
ENCODING 193
SWIDTH 677 0
DWIDTH 13 0
BBX 14 17 0 0
BITMAP
00C0
0180
0200
0000
0000
0300
0300
0300
0580
0580
08C0
08C0
1FE0
1060
2030
2030
F8FC
ENDCHAR

STARTCHAR Acircumflex
ENCODING 194
SWIDTH 677 0
DWIDTH 13 0
BBX 14 17 0 0
BITMAP
0100
0380
0440
0000
0000
0300
0300
0300
0580
0580
08C0
08C0
1FE0
1060
2030
2030
F8FC
ENDCHAR

STARTCHAR Atilde
ENCODING 195
SWIDTH 677 0
DWIDTH 13 0
BBX 14 16 0 0
BITMAP
0740
0B80
0000
0000
0300
0300
0300
0580
0580
08C0
08C0
1FE0
1060
2030
2030
F8FC
ENDCHAR

STARTCHAR Adieresis
ENCODING 196
SWIDTH 677 0
DWIDTH 13 0
BBX 14 16 0 0
BITMAP
0CC0
0CC0
0000
0000
0300
0300
0300
0580
0580
08C0
08C0
1FE0
1060
2030
2030
F8FC
ENDCHAR

STARTCHAR Aring
ENCODING 197
SWIDTH 677 0
DWIDTH 13 0
BBX 14 17 0 0
BITMAP
0300
0480
0480
0300
0000
0300
0300
0300
0580
0580
08C0
08C0
1FE0
1060
2030
2030
F8FC
ENDCHAR

STARTCHAR AE
ENCODING 198
SWIDTH 875 0
DWIDTH 17 0
BBX 17 12 -1 0
BITMAP
03FF00
016100
026100
026000
046200
047E00
0FE200
086000
106000
106080
206080
F9FF80
ENDCHAR

STARTCHAR Ccedilla
ENCODING 199
SWIDTH 729 0
DWIDTH 14 0
BBX 11 16 1 -4
BITMAP
0FE0
3060
6020
6000
C000
C000
C000
C000
6000
6020
3060
0F80
0200
0300
0180
0F00
ENDCHAR

STARTCHAR Egrave
ENCODING 200
SWIDTH 594 0
DWIDTH 11 0
BBX 10 17 0 0
BITMAP
1800
0C00
0200
0000
0000
FF80
3080
3080
3000
3100
3F00
3100
3000
3000
3040
3040
FFC0
ENDCHAR

STARTCHAR Eacute
ENCODING 201
SWIDTH 594 0
DWIDTH 11 0
BBX 10 17 0 0
BITMAP
0600
0C00
1000
0000
0000
FF80
3080
3080
3000
3100
3F00
3100
3000
3000
3040
3040
FFC0
ENDCHAR

STARTCHAR Ecircumflex
ENCODING 202
SWIDTH 594 0
DWIDTH 11 0
BBX 10 17 0 0
BITMAP
0400
0E00
1100
0000
0000
FF80
3080
3080
3000
3100
3F00
3100
3000
3000
3040
3040
FFC0
ENDCHAR

STARTCHAR Edieresis
ENCODING 203
SWIDTH 594 0
DWIDTH 11 0
BBX 10 16 0 0
BITMAP
3300
3300
0000
0000
FF80
3080
3080
3000
3100
3F00
3100
3000
3000
3040
3040
FFC0
ENDCHAR

STARTCHAR Igrave
ENCODING 204
SWIDTH 333 0
DWIDTH 6 0
BBX 6 17 0 0
BITMAP
60
30
08
00
00
FC
30
30
30
30
30
30
30
30
30
30
FC
ENDCHAR

STARTCHAR Iacute
ENCODING 205
SWIDTH 333 0
DWIDTH 6 0
BBX 6 17 0 0
BITMAP
18
30
40
00
00
FC
30
30
30
30
30
30
30
30
30
30
FC
ENDCHAR

STARTCHAR Icircumflex
ENCODING 206
SWIDTH 333 0
DWIDTH 6 0
BBX 6 17 0 0
BITMAP
10
38
44
00
00
FC
30
30
30
30
30
30
30
30
30
30
FC
ENDCHAR

STARTCHAR Idieresis
ENCODING 207
SWIDTH 333 0
DWIDTH 6 0
BBX 6 16 0 0
BITMAP
CC
CC
00
00
FC
30
30
30
30
30
30
30
30
30
30
FC
ENDCHAR

STARTCHAR Eth
ENCODING 208
SWIDTH 760 0
DWIDTH 14 0
BBX 12 12 0 0
BITMAP
FF00
30C0
3060
3060
3030
FE30
3030
3030
3060
3060
30C0
FF00
ENDCHAR

STARTCHAR Ntilde
ENCODING 209
SWIDTH 813 0
DWIDTH 15 0
BBX 14 16 0 0
BITMAP
0740
0B80
0000
0000
E07C
3010
3810
2C10
2610
2310
2310
2190
20D0
2070
2030
F810
ENDCHAR

STARTCHAR Ograve
ENCODING 210
SWIDTH 823 0
DWIDTH 16 0
BBX 13 17 1 0
BITMAP
0C00
0600
0100
0000
0000
0F80
3060
6030
6030
C018
C018
C018
C018
6030
6030
3060
0F80
ENDCHAR

STARTCHAR Oacute
ENCODING 211
SWIDTH 823 0
DWIDTH 16 0
BBX 13 17 1 0
BITMAP
0180
0300
0400
0000
0000
0F80
3060
6030
6030
C018
C018
C018
C018
6030
6030
3060
0F80
ENDCHAR

STARTCHAR Ocircumflex
ENCODING 212
SWIDTH 823 0
DWIDTH 16 0
BBX 13 17 1 0
BITMAP
0200
0700
0880
0000
0000
0F80
3060
6030
6030
C018
C018
C018
C018
6030
6030
3060
0F80
ENDCHAR

STARTCHAR Otilde
ENCODING 213
SWIDTH 823 0
DWIDTH 16 0
BBX 13 16 1 0
BITMAP
0740
0B80
0000
0000
0F80
3060
6030
6030
C018
C018
C018
C018
6030
6030
3060
0F80
ENDCHAR

STARTCHAR Odieresis
ENCODING 214
SWIDTH 823 0
DWIDTH 16 0
BBX 13 16 1 0
BITMAP
0CC0
0CC0
0000
0000
0F80
3060
6030
6030
C018
C018
C018
C018
6030
6030
3060
0F80
ENDCHAR

STARTCHAR multiply
ENCODING 215
SWIDTH 667 0
DWIDTH 13 0
BBX 10 9 1 2
BITMAP
C0C0
6180
3300
1E00
0C00
1E00
3300
6180
C0C0
ENDCHAR

STARTCHAR Oslash
ENCODING 216
SWIDTH 823 0
DWIDTH 16 0
BBX 13 12 1 0
BITMAP
0F98
3070
6070
60F0
C198
C318
C618
CC18
7830
7030
7060
CF80
ENDCHAR

STARTCHAR Ugrave
ENCODING 217
SWIDTH 792 0
DWIDTH 15 0
BBX 14 17 0 0
BITMAP
0600
0300
0080
0000
0000
FC7C
3010
3010
3010
3010
3010
3010
3010
3010
3010
1820
0FC0
ENDCHAR

STARTCHAR Uacute
ENCODING 218
SWIDTH 792 0
DWIDTH 15 0
BBX 14 17 0 0
BITMAP
0180
0300
0400
0000
0000
FC7C
3010
3010
3010
3010
3010
3010
3010
3010
3010
1820
0FC0
ENDCHAR

STARTCHAR Ucircumflex
ENCODING 219
SWIDTH 792 0
DWIDTH 15 0
BBX 14 17 0 0
BITMAP
0100
0380
0440
0000
0000
FC7C
3010
3010
3010
3010
3010
3010
3010
3010
3010
1820
0FC0
ENDCHAR

STARTCHAR Udieresis
ENCODING 220
SWIDTH 792 0
DWIDTH 15 0
BBX 14 16 0 0
BITMAP
0CC0
0CC0
0000
0000
FC7C
3010
3010
3010
3010
3010
3010
3010
3010
3010
1820
0FC0
ENDCHAR

STARTCHAR Yacute
ENCODING 221
SWIDTH 708 0
DWIDTH 13 0
BBX 14 17 -1 0
BITMAP
00C0
0180
0200
0000
0000
F87C
3010
1820
0C40
0680
0300
0300
0300
0300
0300
0300
0FC0
ENDCHAR

STARTCHAR Thorn
ENCODING 222
SWIDTH 563 0
DWIDTH 11 0
BBX 10 12 0 0
BITMAP
FC00
3000
3F00
3180
30C0
30C0
30C0
30C0
3180
3F00
3000
FC00
ENDCHAR

STARTCHAR germandbls
ENCODING 223
SWIDTH 521 0
DWIDTH 10 0
BBX 9 13 0 0
BITMAP
1E00
2300
6300
6300
6300
6200
6C00
6300
6180
6180
6180
6300
F600
ENDCHAR

STARTCHAR agrave
ENCODING 224
SWIDTH 396 0
DWIDTH 8 0
BBX 7 13 1 0
BITMAP
60
30
08
00
00
78
CC
0C
1C
6C
CC
CC
F6
ENDCHAR

STARTCHAR aacute
ENCODING 225
SWIDTH 396 0
DWIDTH 8 0
BBX 7 13 1 0
BITMAP
18
30
40
00
00
78
CC
0C
1C
6C
CC
CC
F6
ENDCHAR

STARTCHAR acircumflex
ENCODING 226
SWIDTH 396 0
DWIDTH 8 0
BBX 7 13 1 0
BITMAP
10
38
44
00
00
78
CC
0C
1C
6C
CC
CC
F6
ENDCHAR

STARTCHAR atilde
ENCODING 227
SWIDTH 396 0
DWIDTH 8 0
BBX 7 12 1 0
BITMAP
74
B8
00
00
78
CC
0C
1C
6C
CC
CC
F6
ENDCHAR

STARTCHAR adieresis
ENCODING 228
SWIDTH 396 0
DWIDTH 8 0
BBX 7 12 1 0
BITMAP
6C
6C
00
00
78
CC
0C
1C
6C
CC
CC
F6
ENDCHAR

STARTCHAR aring
ENCODING 229
SWIDTH 396 0
DWIDTH 8 0
BBX 7 13 1 0
BITMAP
30
48
48
30
00
78
CC
0C
1C
6C
CC
CC
F6
ENDCHAR

STARTCHAR ae
ENCODING 230
SWIDTH 625 0
DWIDTH 12 0
BBX 11 8 0 0
BITMAP
7B80
CC40
0C60
1FE0
6C00
CC00
CE60
F3C0
ENDCHAR

STARTCHAR ccedilla
ENCODING 231
SWIDTH 427 0
DWIDTH 8 0
BBX 7 11 0 -3
BITMAP
3C
66
C0
C0
C0
C0
62
3C
10
18
70
ENDCHAR

STARTCHAR egrave
ENCODING 232
SWIDTH 438 0
DWIDTH 8 0
BBX 7 13 0 0
BITMAP
30
18
04
00
00
38
44
C6
FE
C0
C0
66
3C
ENDCHAR

STARTCHAR eacute
ENCODING 233
SWIDTH 438 0
DWIDTH 8 0
BBX 7 13 0 0
BITMAP
0C
18
20
00
00
38
44
C6
FE
C0
C0
66
3C
ENDCHAR

STARTCHAR ecircumflex
ENCODING 234
SWIDTH 438 0
DWIDTH 8 0
BBX 7 13 0 0
BITMAP
10
38
44
00
00
38
44
C6
FE
C0
C0
66
3C
ENDCHAR

STARTCHAR edieresis
ENCODING 235
SWIDTH 438 0
DWIDTH 8 0
BBX 7 12 0 0
BITMAP
6C
6C
00
00
38
44
C6
FE
C0
C0
66
3C
ENDCHAR

STARTCHAR igrave
ENCODING 236
SWIDTH 260 0
DWIDTH 5 0
BBX 4 13 0 0
BITMAP
C0
60
10
00
00
60
E0
60
60
60
60
60
F0
ENDCHAR

STARTCHAR iacute
ENCODING 237
SWIDTH 260 0
DWIDTH 5 0
BBX 4 13 0 0
BITMAP
30
60
80
00
00
60
E0
60
60
60
60
60
F0
ENDCHAR

STARTCHAR icircumflex
ENCODING 238
SWIDTH 260 0
DWIDTH 5 0
BBX 5 12 0 0
BITMAP
20
70
88
00
60
E0
60
60
60
60
60
F0
ENDCHAR

STARTCHAR idieresis
ENCODING 239
SWIDTH 260 0
DWIDTH 5 0
BBX 5 12 0 0
BITMAP
D8
D8
00
00
60
E0
60
60
60
60
60
F0
ENDCHAR

STARTCHAR eth
ENCODING 240
SWIDTH 521 0
DWIDTH 10 0
BBX 7 13 1 0
BITMAP
6C
10
38
4C
04
3C
4E
C6
C6
C6
C6
64
38
ENDCHAR

STARTCHAR ntilde
ENCODING 241
SWIDTH 521 0
DWIDTH 10 0
BBX 9 12 0 0
BITMAP
1D00
2E00
0000
0000
6E00
F300
6300
6300
6300
6300
6300
F780
ENDCHAR

STARTCHAR ograve
ENCODING 242
SWIDTH 521 0
DWIDTH 10 0
BBX 7 13 1 0
BITMAP
60
30
08
00
00
38
4C
C6
C6
C6
C6
64
38
ENDCHAR

STARTCHAR oacute
ENCODING 243
SWIDTH 521 0
DWIDTH 10 0
BBX 7 13 1 0
BITMAP
18
30
40
00
00
38
4C
C6
C6
C6
C6
64
38
ENDCHAR

STARTCHAR ocircumflex
ENCODING 244
SWIDTH 521 0
DWIDTH 10 0
BBX 7 13 1 0
BITMAP
18
3C
42
00
00
38
4C
C6
C6
C6
C6
64
38
ENDCHAR

STARTCHAR otilde
ENCODING 245
SWIDTH 521 0
DWIDTH 10 0
BBX 7 12 1 0
BITMAP
74
B8
00
00
38
4C
C6
C6
C6
C6
64
38
ENDCHAR

STARTCHAR odieresis
ENCODING 246
SWIDTH 521 0
DWIDTH 10 0
BBX 7 12 1 0
BITMAP
66
66
00
00
38
4C
C6
C6
C6
C6
64
38
ENDCHAR

STARTCHAR divide
ENCODING 247
SWIDTH 667 0
DWIDTH 13 0
BBX 10 9 1 2
BITMAP
0C00
0000
0000
0000
FFC0
0000
0000
0000
0C00
ENDCHAR

STARTCHAR oslash
ENCODING 248
SWIDTH 521 0
DWIDTH 10 0
BBX 7 8 1 0
BITMAP
3A
4C
CE
D6
D6
E6
64
B8
ENDCHAR

STARTCHAR ugrave
ENCODING 249
SWIDTH 521 0
DWIDTH 10 0
BBX 9 13 0 0
BITMAP
1800
0C00
0200
0000
0000
6300
E700
6300
6300
6300
6300
6700
3B80
ENDCHAR

STARTCHAR uacute
ENCODING 250
SWIDTH 521 0
DWIDTH 10 0
BBX 9 13 0 0
BITMAP
0600
0C00
1000
0000
0000
6300
E700
6300
6300
6300
6300
6700
3B80
ENDCHAR

STARTCHAR ucircumflex
ENCODING 251
SWIDTH 521 0
DWIDTH 10 0
BBX 9 13 0 0
BITMAP
0800
1C00
2200
0000
0000
6300
E700
6300
6300
6300
6300
6700
3B80
ENDCHAR

STARTCHAR udieresis
ENCODING 252
SWIDTH 521 0
DWIDTH 10 0
BBX 9 12 0 0
BITMAP
3300
3300
0000
0000
6300
E700
6300
6300
6300
6300
6700
3B80
ENDCHAR

STARTCHAR yacute
ENCODING 253
SWIDTH 469 0
DWIDTH 9 0
BBX 8 17 0 -4
BITMAP
06
0C
10
00
00
F7
62
62
34
34
18
18
10
20
20
C0
C0
ENDCHAR

STARTCHAR thorn
ENCODING 254
SWIDTH 500 0
DWIDTH 10 0
BBX 9 17 0 -4
BITMAP
6000
E000
6000
6000
6000
6E00
7300
6180
6180
6180
6180
7300
6E00
6000
6000
6000
F000
ENDCHAR

STARTCHAR ydieresis
ENCODING 255
SWIDTH 469 0
DWIDTH 9 0
BBX 8 16 0 -4
BITMAP
66
66
00
00
F7
62
62
34
34
18
18
10
20
20
C0
C0
ENDCHAR
ENDFONT
